<svg width="80" height="60" viewBox="0 0 80 60" fill="none" xmlns="http://www.w3.org/2000/svg">
<g clip-path="url(#clip0_78_628)">
<path fill-rule="evenodd" clip-rule="evenodd" d="M2.71289 29.9186C2.71289 15.4498 19.3677 3.78174 39.9329 3.78174C60.4981 3.78174 77.1528 15.4498 77.1528 29.9186C77.1528 44.3874 60.4981 56.0555 39.9329 56.0555C19.3677 56.0555 2.71289 44.3874 2.71289 29.9186Z" fill="#F3F3F6"/>
<path fill-rule="evenodd" clip-rule="evenodd" d="M53.1211 5.46682C52.688 5.35179 52.2519 5.24116 51.8112 5.13721C48.0975 8.05523 42.7178 9.12319 39.9329 9.12319C37.1481 9.12319 31.7684 8.05523 28.0547 5.13721C27.614 5.24116 27.1778 5.35179 26.7446 5.46682L27.0326 5.70797C30.975 9.00778 36.9073 10.2057 39.9329 10.2057C42.9584 10.2057 48.8909 9.00778 52.8331 5.70797L53.1211 5.46682Z" fill="#24539C"/>
<path fill-rule="evenodd" clip-rule="evenodd" d="M69.9725 14.4688C69.687 14.1952 69.3944 13.9254 69.0942 13.6602C60.8355 17.0855 49.4343 19.2919 39.9332 19.2919C30.4321 19.2919 19.031 17.0855 10.7721 13.6602C10.472 13.9256 10.1795 14.1954 9.89404 14.4688L10.045 14.5326C18.4504 18.0814 30.1822 20.3744 39.9332 20.3744C49.6841 20.3744 61.4158 18.0814 69.8214 14.5326L69.9725 14.4688Z" fill="#24539C"/>
<path fill-rule="evenodd" clip-rule="evenodd" d="M53.1212 54.37L52.8334 54.1289C48.8912 50.8291 42.9587 49.6313 39.9332 49.6313C36.9076 49.6313 30.9753 50.8291 27.0329 54.1289L26.7451 54.37C27.1781 54.485 27.6143 54.5957 28.055 54.6996C31.7687 51.7816 37.1484 50.7136 39.9332 50.7136C42.7181 50.7136 48.0978 51.7816 51.8115 54.6996C52.252 54.5959 52.6883 54.485 53.1212 54.37Z" fill="#24539C"/>
<path fill-rule="evenodd" clip-rule="evenodd" d="M69.9725 45.3683L69.8214 45.3045C61.4158 41.7559 49.6841 39.4629 39.9332 39.4629C30.1822 39.4629 18.4504 41.7559 10.045 45.3045L9.89404 45.3683C10.1795 45.6419 10.472 45.9117 10.7721 46.1768C19.031 42.7516 30.4321 40.5452 39.9332 40.5452C49.4343 40.5452 60.8355 42.7516 69.0942 46.177C69.3946 45.9117 69.687 45.6419 69.9725 45.3683Z" fill="#24539C"/>
<path fill-rule="evenodd" clip-rule="evenodd" d="M29.6943 46.6076C27.8956 44.569 26.4957 42.2611 25.5335 39.7481C24.4128 36.8213 23.8445 33.5143 23.8445 29.9187C23.8445 26.3231 24.4128 23.016 25.5335 20.0892C26.4957 17.5762 27.8956 15.2683 29.6943 13.2297C32.838 9.66656 36.6073 7.49452 39.933 5.74917C43.2587 7.49452 47.0277 9.66637 50.1716 13.2297C51.9702 15.2683 53.3703 17.5762 54.3324 20.0892C55.4532 23.016 56.0215 26.3231 56.0215 29.9187C56.0215 33.5143 55.4532 36.8213 54.3324 39.7481C53.3703 42.2611 51.9702 44.569 50.1716 46.6076C47.0277 50.1708 43.2587 52.3428 39.933 54.088C36.6073 52.3428 32.838 50.1708 29.6943 46.6076ZM39.6785 4.6577C36.2052 6.47108 32.2194 8.72337 28.8723 12.5171C26.9878 14.6531 25.521 17.0714 24.5124 19.7051C23.3446 22.755 22.7524 26.1912 22.7524 29.9187C22.7524 33.6459 23.3446 37.0824 24.5124 40.1322C25.521 42.7659 26.9878 45.1843 28.8723 47.3202C32.2192 51.1138 36.2052 53.3662 39.6785 55.1796L39.933 55.3126L40.1874 55.1796C43.6608 53.3662 47.6465 51.1139 50.9936 47.3202C52.8781 45.1843 54.3449 42.7659 55.3535 40.1322C56.5213 37.0824 57.1135 33.6459 57.1135 29.9187C57.1135 26.1912 56.5213 22.755 55.3535 19.7051C54.3449 17.0714 52.8781 14.6531 50.9936 12.5171C47.6465 8.72337 43.6608 6.47108 40.1874 4.6577L39.933 4.5249L39.6785 4.6577Z" fill="#24539C"/>
<path fill-rule="evenodd" clip-rule="evenodd" d="M31.1394 28.8728C27.113 24.8817 26.2253 22.7647 26.2253 20.2905C26.2253 15.4196 34.3375 9.00211 40.4215 5.36829L39.6414 4.67236C30.9832 8.92472 20.9993 14.9557 20.9993 20.6771C20.9993 24.6203 23.3725 25.1322 27.9413 29.4141C32.2314 33.4345 32.8554 35.5221 32.8554 37.9962C32.8554 43.7952 24.5092 49.2075 19.2832 51.759L20.2972 52.5319C28.0973 49.362 38.7055 44.3364 38.7055 38.3054C38.7055 34.0531 35.5853 33.2798 31.1394 28.8728Z" fill="#24539C"/>
<path fill-rule="evenodd" clip-rule="evenodd" d="M39.9329 56.0553C60.4891 56.0553 77.153 44.3536 77.153 29.9186C77.153 15.4836 60.4891 3.78172 39.9329 3.78172C19.377 3.78172 2.71306 15.4836 2.71306 29.9186C2.71306 44.3536 19.377 56.0553 39.9329 56.0553ZM0 29.9186C0 13.3949 17.8786 0 39.9329 0C61.9875 0 79.8658 13.3949 79.8658 29.9186C79.8658 46.4421 61.9875 59.8372 39.9329 59.8372C17.8786 59.8372 0 46.4421 0 29.9186Z" fill="#C9CBD1"/>
<path fill-rule="evenodd" clip-rule="evenodd" d="M11.9509 28.7177C7.03905 28.7256 3.67924 28.4865 3.64551 28.4898V30.4285L3.64898 30.4289C6.71385 30.7184 9.34825 30.8468 11.9509 30.8651V28.7177Z" fill="#24539C"/>
<path fill-rule="evenodd" clip-rule="evenodd" d="M12.4189 36.6047H15.851V21.2959H12.4189V36.6047Z" fill="#24539C"/>
<path fill-rule="evenodd" clip-rule="evenodd" d="M43.4634 36.6047H46.8955V21.2959H43.4634V36.6047Z" fill="#24539C"/>
<path fill-rule="evenodd" clip-rule="evenodd" d="M57.4258 29.233C54.7423 28.8243 51.2739 28.3732 47.3638 28.0923V30.2947C51.6387 30.6602 55.4087 31.239 57.4258 31.5633V29.233Z" fill="#24539C"/>
<path fill-rule="evenodd" clip-rule="evenodd" d="M65.743 30.4982C64.7689 30.4107 63.6414 30.2444 61.7983 29.9438V32.2072C63.03 32.3482 64.388 32.464 65.7426 32.5024L65.743 30.4982Z" fill="#24539C"/>
<path fill-rule="evenodd" clip-rule="evenodd" d="M75.1034 26.6498C74.8682 26.4169 74.4715 26.6055 73.7775 27.7615C73.2472 28.6451 72.1465 29.8271 70.1152 30.3358V32.2579C72.1929 31.8687 73.5065 30.8999 74.7791 28.574C75.0051 28.1611 75.4384 26.9819 75.1034 26.6498Z" fill="#24539C"/>
<path fill-rule="evenodd" clip-rule="evenodd" d="M69.6476 27.3705C69.6476 24.1536 67.0166 21.5459 63.7715 21.5459C60.526 21.5459 57.8953 24.1532 57.8949 27.3699L57.8936 27.3709V36.6046H61.3305V27.3709C61.3305 26.0371 62.4258 24.9516 63.7715 24.9516C65.1167 24.9516 66.2112 26.0363 66.2116 27.3699L66.2103 27.3709V36.6046H69.6472L69.6476 27.3705Z" fill="#24539C"/>
<path fill-rule="evenodd" clip-rule="evenodd" d="M28.1193 30.2275C27.9586 30.072 27.7926 29.9134 27.6195 29.7514C26.9583 29.1317 26.3481 28.5957 25.781 28.1138C23.4344 28.2235 22.213 28.3217 22.213 28.3217C20.1741 28.4835 18.188 28.5854 16.3188 28.6452V30.8033C18.25 30.7402 20.2784 30.6351 22.5523 30.5069C22.5523 30.5069 24.5808 30.3609 28.1193 30.2275Z" fill="#24539C"/>
<path fill-rule="evenodd" clip-rule="evenodd" d="M39.9329 27.8169C36.4074 27.8169 33.3735 27.8649 30.8613 27.9312C31.0556 28.1307 31.2582 28.3349 31.4703 28.5451C32.0442 29.114 32.5945 29.6203 33.1196 30.0824C35.1578 30.0401 37.4429 30.1076 39.9329 30.1076C41.0377 30.1076 42.0542 30.1168 42.9955 30.1338V27.8656C41.9914 27.8341 40.9691 27.8169 39.9329 27.8169Z" fill="#24539C"/>
<path fill-rule="evenodd" clip-rule="evenodd" d="M60.7295 14.2885L58.5178 13.0226L60.7295 11.7568C60.9722 11.6181 61.0551 11.3108 60.9151 11.0705C60.775 10.8301 60.465 10.7477 60.2225 10.8864L58.0107 12.1522V9.62071C58.0107 9.34326 57.7838 9.11816 57.5039 9.11816C57.2238 9.11816 56.9969 9.34326 56.9969 9.62071V12.1522L54.785 10.8864C54.5425 10.7477 54.2325 10.8301 54.0924 11.0705C53.9524 11.3108 54.0355 11.6181 54.278 11.7568L56.4899 13.0228L54.278 14.2885C54.0355 14.4274 53.9524 14.7347 54.0924 14.975C54.2325 15.2154 54.5425 15.2978 54.785 15.1589L56.9969 13.8931V16.4246C56.9969 16.7022 57.2238 16.9273 57.5039 16.9273C57.7838 16.9273 58.0107 16.7022 58.0107 16.4246V13.8931L60.2225 15.1589C60.4652 15.2978 60.775 15.2154 60.9151 14.975C61.0551 14.7345 60.9722 14.4272 60.7295 14.2885Z" fill="#24539C"/>
<path fill-rule="evenodd" clip-rule="evenodd" d="M22.314 44.3854L20.1023 43.1194L22.314 41.8537C22.5565 41.715 22.6396 41.4077 22.4994 41.1671C22.3595 40.9268 22.0493 40.8446 21.807 40.9833L19.5951 42.249V39.7176C19.5951 39.4399 19.3682 39.2148 19.0881 39.2148C18.8082 39.2148 18.5811 39.4399 18.5811 39.7176V42.249L16.3695 40.9833C16.127 40.8446 15.8168 40.9268 15.6769 41.1671C15.5369 41.4077 15.62 41.715 15.8625 41.8539L18.0742 43.1196L15.8625 44.3854C15.62 44.5243 15.5369 44.8315 15.6769 45.0719C15.8168 45.3123 16.127 45.3945 16.3695 45.2559L18.5811 43.9902V46.5217C18.5811 46.7991 18.8082 47.0242 19.0881 47.0242C19.3682 47.0242 19.5951 46.7991 19.5951 46.5217V43.9902L21.807 45.2559C22.0495 45.3945 22.3595 45.3123 22.4994 45.0719C22.6396 44.8315 22.5565 44.5243 22.314 44.3854Z" fill="#24539C"/>
</g>
<defs>
<clipPath id="clip0_78_628">
<rect width="80" height="60" fill="white"/>
</clipPath>
</defs>
</svg>
